<?xml version="1.0" standalone="no"?>
<!DOCTYPE svg PUBLIC "-//W3C//DTD SVG 20010904//EN"
 "http://www.w3.org/TR/2001/REC-SVG-20010904/DTD/svg10.dtd">
<svg version="1.0" xmlns="http://www.w3.org/2000/svg"
 width="695.000000pt" height="255.000000pt" viewBox="0 0 695.000000 255.000000"
 preserveAspectRatio="xMidYMid meet">

<g transform="translate(0.000000,255.000000) scale(0.100000,-0.100000)"
fill="#000000" stroke="none">
<path d="M0 1275 l0 -1275 3475 0 3475 0 0 1275 0 1275 -3475 0 -3475 0 0
-1275z m2362 1008 c315 -89 550 -283 688 -567 79 -162 94 -228 94 -441 1 -166
-1 -187 -26 -277 -52 -184 -126 -315 -258 -452 -138 -143 -302 -240 -498 -294
l-97 -27 -947 -3 -948 -3 0 1046 0 1046 958 -3 c949 -3 958 -3 1034 -25z
m3382 -676 c13 -10 16 -20 11 -36 -6 -19 -11 -21 -33 -15 -75 22 -112 -1 -112
-68 l0 -38 65 0 c63 0 65 -1 65 -25 0 -24 -3 -25 -60 -25 l-60 0 0 -170 0
-170 -35 0 -35 0 0 170 0 170 -35 0 c-31 0 -35 3 -35 25 0 22 4 25 35 25 l35
0 0 49 c0 52 25 95 64 111 33 13 110 11 130 -3z m-1870 -19 c15 -24 -3 -52
-37 -56 -33 -4 -53 28 -37 59 14 25 58 23 74 -3z m1318 -225 l3 -248 33 -3
c26 -3 32 -7 32 -27 0 -30 -33 -41 -75 -25 -54 20 -54 25 -55 298 l0 252 30 0
30 0 2 -247z m202 241 c24 -9 21 -61 -4 -69 -35 -11 -60 3 -60 35 0 35 26 49
64 34z m486 -14 c8 -14 8 -26 0 -40 -19 -35 -80 -20 -80 20 0 40 61 55 80 20z
m870 -255 l0 -275 -30 0 c-27 0 -30 3 -30 30 l0 29 -26 -24 c-61 -57 -156 -55
-215 4 -87 86 -69 283 30 339 64 36 134 28 189 -21 l22 -20 0 106 0 107 30 0
30 0 0 -275z m-3149 245 c19 -6 45 -20 57 -33 20 -21 21 -25 6 -45 l-15 -22
-26 20 c-60 47 -157 48 -193 3 -47 -60 -11 -110 95 -137 131 -33 175 -74 175
-163 0 -83 -46 -130 -142 -148 -71 -13 -185 27 -216 75 -7 12 -5 23 8 40 l18
24 30 -32 c37 -39 69 -52 131 -52 80 0 127 57 102 123 -12 32 -48 51 -137 73
-53 13 -77 26 -106 54 -33 33 -38 44 -38 84 0 26 7 61 16 77 29 57 141 85 235
59z m661 -150 l30 -30 30 25 c36 31 67 39 119 32 83 -11 99 -51 99 -254 l0
-143 -29 0 -29 0 -3 153 c-4 167 -9 181 -59 192 -41 9 -82 -13 -102 -55 -14
-28 -18 -61 -18 -162 l0 -128 -30 0 -30 0 0 143 c0 93 -5 150 -13 166 -17 35
-57 45 -101 27 -54 -23 -66 -60 -66 -211 l0 -125 -30 0 -30 0 0 195 0 195 30
0 c26 0 30 -4 30 -27 1 -24 2 -26 13 -13 26 34 62 50 110 50 41 0 53 -5 79
-30z m666 16 c69 -36 97 -102 90 -211 -5 -81 -27 -126 -73 -155 -63 -38 -146
-34 -193 10 l-22 21 0 -106 0 -105 -35 0 -35 0 0 275 0 275 35 0 c31 0 35 -3
35 -27 l0 -26 23 20 c12 11 31 25 42 31 28 16 101 15 133 -2z m1306 0 c51 -21
78 -67 84 -142 l5 -64 -137 0 -136 0 0 -25 c0 -13 5 -36 12 -50 30 -67 152
-75 196 -13 10 14 17 16 33 8 28 -15 24 -34 -15 -68 -60 -53 -170 -51 -235 4
-63 53 -81 191 -35 279 38 72 145 106 228 71z m-2364 -191 l0 -195 -30 0 -30
0 0 195 0 195 30 0 30 0 0 -195z m1530 0 l0 -195 -30 0 -30 0 0 195 0 195 30
0 30 0 0 -195z m470 0 l0 -195 -30 0 -30 0 0 195 0 195 30 0 30 0 0 -195z"/>
<path d="M730 1265 l0 -825 298 0 c391 0 465 16 649 137 245 161 387 442 370
737 -7 125 -25 196 -81 311 -83 173 -220 310 -391 391 -150 70 -179 74 -533
74 l-312 0 0 -825z"/>
<path d="M2260 1759 c-113 -3 -206 -6 -208 -7 -1 -1 -11 -17 -22 -34 -29 -48
-26 -90 9 -127 l29 -31 151 0 150 0 3 -446 3 -446 33 -29 c37 -33 77 -37 122
-14 16 8 34 24 40 34 6 13 10 177 10 460 l0 441 154 0 c151 0 154 0 179 25 30
31 38 66 25 111 -16 59 -30 62 -263 66 -115 2 -302 1 -415 -3z"/>
<path d="M6522 1395 c-78 -34 -85 -216 -11 -269 28 -19 84 -21 119 -3 72 36
81 200 14 259 -28 24 -83 30 -122 13z"/>
<path d="M4793 1396 c-49 -22 -66 -65 -61 -154 3 -69 6 -76 36 -103 43 -39
111 -41 147 -5 57 57 58 192 3 243 -31 28 -85 36 -125 19z"/>
<path d="M6123 1403 c-30 -6 -73 -59 -73 -89 0 -24 1 -24 105 -24 115 0 114 0
94 60 -8 22 -22 37 -45 46 -34 14 -41 15 -81 7z"/>
</g>
</svg>
