<?xml version="1.0" standalone="no"?>
<!DOCTYPE svg PUBLIC "-//W3C//DTD SVG 20010904//EN"
 "http://www.w3.org/TR/2001/REC-SVG-20010904/DTD/svg10.dtd">
<svg version="1.0" xmlns="http://www.w3.org/2000/svg"
 width="938.000000pt" height="165.000000pt" viewBox="0 0 938.000000 165.000000"
 preserveAspectRatio="xMidYMid meet">

<g transform="translate(0.000000,165.000000) scale(0.100000,-0.100000)"
fill="#000000" stroke="none">
<path d="M0 825 l0 -825 4690 0 4690 0 0 825 0 825 -4690 0 -4690 0 0 -825z
m4490 490 c107 -23 176 -59 250 -134 101 -102 150 -225 150 -376 0 -230 -121
-415 -325 -496 l-60 -24 -1962 -3 -1963 -2 0 525 0 525 1919 0 c1667 0 1929
-2 1991 -15z m3208 -222 c3 -33 3 -33 -41 -33 -55 0 -77 -22 -84 -85 l-6 -45
52 0 c50 0 51 -1 51 -30 0 -29 -1 -30 -50 -30 l-50 0 0 -200 0 -200 -40 0 -40
0 0 200 0 200 -35 0 c-32 0 -35 2 -35 30 0 28 3 30 35 30 l35 0 0 48 c0 96 61
155 155 150 48 -3 50 -4 53 -35z m-578 -298 l0 -325 -45 0 -45 0 0 325 0 325
45 0 45 0 0 -325z m1670 0 l0 -325 -34 0 c-21 0 -36 6 -40 15 -5 14 -11 13
-45 -5 -74 -37 -163 -21 -214 39 -97 116 -62 357 60 407 47 20 112 17 151 -6
18 -11 35 -20 37 -20 3 0 5 50 5 110 l0 110 40 0 40 0 0 -325z m-3412 279 c57
-28 102 -89 102 -137 0 -25 -4 -27 -38 -27 -35 0 -39 3 -52 43 -18 50 -62 77
-128 77 -75 0 -122 -37 -122 -95 0 -55 42 -89 140 -115 71 -19 158 -69 179
-104 42 -70 33 -148 -24 -201 -102 -97 -326 -62 -385 59 -31 65 -28 76 25 76
34 0 45 -4 45 -15 0 -9 7 -29 15 -44 39 -76 213 -83 250 -10 39 75 8 116 -119
159 -113 37 -167 71 -195 120 -25 45 -27 90 -5 137 46 96 199 134 312 77z
m280 14 c7 -7 12 -21 12 -33 0 -29 -19 -45 -52 -45 -36 0 -56 36 -39 69 13 23
59 29 79 9z m1673 -9 c17 -33 -3 -69 -39 -69 -33 0 -52 16 -52 45 0 29 19 45
52 45 18 0 31 -7 39 -21z m510 0 c17 -33 -3 -69 -39 -69 -33 0 -52 16 -52 45
0 29 19 45 52 45 18 0 31 -7 39 -21z m-1778 -150 c12 -6 32 -21 44 -32 21 -18
24 -19 40 -5 56 49 145 62 210 31 62 -29 73 -69 73 -275 l0 -178 -40 0 -40 0
0 159 c0 215 -11 241 -100 241 -33 0 -48 -6 -71 -29 l-29 -29 0 -171 0 -171
-45 0 -45 0 0 175 c0 173 0 176 -25 200 -32 33 -100 35 -139 4 l-26 -20 0
-180 0 -179 -45 0 -45 0 0 230 0 230 40 0 c33 0 40 -3 40 -19 0 -19 2 -19 43
4 46 27 122 33 160 14z m754 0 c64 -24 100 -79 114 -173 18 -127 -28 -249
-106 -282 -48 -20 -114 -18 -158 5 l-37 19 0 -104 0 -104 -45 0 -45 0 0 320 0
320 40 0 c34 0 40 -3 40 -21 0 -20 0 -20 28 -1 15 10 34 22 42 25 26 9 97 7
127 -4z m1406 -3 c66 -27 104 -95 109 -196 l3 -55 -156 -3 -157 -2 8 -33 c4
-18 13 -42 20 -53 36 -58 131 -72 194 -29 44 30 48 30 69 7 16 -17 15 -20 -11
-45 -112 -107 -312 -53 -353 95 -25 93 4 221 63 274 58 53 143 69 211 40z
m-2563 -226 l0 -230 -40 0 -40 0 0 230 0 230 40 0 40 0 0 -230z m1670 0 l0
-230 -40 0 -40 0 0 230 0 230 40 0 40 0 0 -230z m510 0 l0 -230 -40 0 -40 0 0
230 0 230 40 0 40 0 0 -230z"/>
<path d="M760 814 l0 -366 198 4 197 3 63 34 c229 125 267 426 75 601 -86 79
-129 90 -348 90 l-185 0 0 -366z"/>
<path d="M2490 1160 c-29 -29 -27 -90 3 -118 21 -20 34 -22 135 -22 l112 0 0
-260 0 -261 25 -24 c49 -49 127 -23 140 47 3 18 5 138 3 266 l-3 232 113 0
c107 0 114 1 137 25 31 30 32 73 4 109 l-20 26 -315 0 c-301 0 -315 -1 -334
-20z"/>
<path d="M1972 968 c-25 -25 -6 -68 30 -68 9 0 22 9 28 20 22 40 -26 80 -58
48z"/>
<path d="M3000 800 l0 -180 29 0 29 0 3 86 c4 76 7 88 28 105 28 23 32 23 57
5 16 -12 20 -29 22 -105 l4 -91 29 0 29 0 0 95 c0 100 -13 147 -45 159 -32 12
-73 6 -99 -15 l-26 -20 0 70 0 71 -30 0 -30 0 0 -180z"/>
<path d="M3302 968 c-25 -25 -6 -68 30 -68 9 0 22 9 28 20 22 40 -26 80 -58
48z"/>
<path d="M3730 800 l0 -180 30 0 c29 0 30 1 30 50 0 28 4 50 9 50 5 0 26 -22
46 -50 32 -43 41 -50 72 -50 l34 0 -22 33 c-13 17 -35 48 -50 67 l-27 36 44
59 c24 32 44 60 44 62 0 2 -15 3 -33 3 -29 0 -38 -7 -68 -50 -19 -27 -37 -50
-41 -50 -5 0 -8 45 -8 100 l0 100 -30 0 -30 0 0 -180z"/>
<path d="M3992 968 c-25 -25 -6 -68 30 -68 9 0 22 9 28 20 22 40 -26 80 -58
48z"/>
<path d="M2263 891 c-4 -17 -11 -19 -53 -14 -45 5 -51 3 -79 -25 -36 -36 -39
-69 -10 -106 11 -14 16 -26 10 -26 -20 0 -33 -38 -20 -61 9 -17 7 -23 -10 -36
-26 -18 -27 -54 -2 -77 40 -36 179 -30 211 9 16 19 17 82 2 98 -7 6 -43 14
-80 17 -53 4 -67 9 -70 23 -3 14 4 17 33 17 76 0 122 50 96 107 -10 21 -9 29
5 44 9 10 14 25 11 34 -9 21 -38 19 -44 -4z m-39 -67 c20 -8 21 -38 1 -54 -31
-26 -82 13 -56 44 14 17 30 20 55 10z m36 -223 c0 -22 -19 -31 -63 -31 -41 0
-62 14 -54 34 5 12 20 16 62 16 47 0 55 -3 55 -19z"/>
<path d="M4577 890 c-4 -16 -11 -18 -41 -13 -41 6 -92 -11 -106 -38 -16 -30
-11 -75 10 -94 l20 -18 -20 -14 c-21 -15 -27 -48 -10 -58 16 -10 12 -23 -9
-30 -23 -7 -31 -33 -20 -62 18 -49 166 -58 214 -13 30 28 34 79 7 103 -11 10
-40 17 -77 19 -48 2 -60 7 -63 21 -3 14 4 17 36 17 42 0 87 27 97 59 3 10 1
31 -5 46 -8 22 -7 31 5 45 19 21 19 36 -1 44 -25 10 -31 7 -37 -14z m-26 -76
c19 -23 -1 -49 -37 -49 -30 0 -42 20 -30 51 7 19 50 18 67 -2z m24 -204 c11
-19 -16 -40 -50 -40 -46 0 -65 9 -65 31 0 16 8 19 54 19 30 0 58 -5 61 -10z"/>
<path d="M1515 871 c-64 -28 -93 -116 -60 -184 28 -60 112 -85 174 -52 37 19
47 44 24 61 -15 10 -21 10 -36 -3 -35 -33 -107 -13 -107 28 0 17 8 19 80 19
l80 0 0 43 c0 33 -6 49 -24 66 -27 25 -97 37 -131 22z m76 -51 c38 -21 23 -40
-31 -40 -54 0 -62 10 -28 34 26 19 33 19 59 6z"/>
<path d="M1770 873 c-33 -13 -50 -37 -50 -70 0 -27 6 -37 31 -52 17 -11 47
-22 65 -26 24 -4 34 -11 34 -25 0 -27 -34 -34 -75 -14 -34 16 -38 16 -53 0
-15 -15 -15 -18 6 -39 18 -18 34 -22 81 -22 70 0 101 21 101 69 0 45 -11 56
-71 75 -56 19 -75 45 -41 55 11 4 32 2 47 -4 23 -9 32 -8 44 5 14 13 14 17 -1
31 -17 17 -92 28 -118 17z"/>
<path d="M1970 750 l0 -130 30 0 30 0 0 130 0 130 -30 0 -30 0 0 -130z"/>
<path d="M2370 750 l0 -130 30 0 30 0 0 79 c0 44 3 87 6 96 9 24 51 37 75 25
17 -9 19 -22 19 -105 l0 -95 30 0 30 0 0 109 c0 106 -1 110 -26 130 -15 12
-39 21 -54 21 -15 0 -39 -9 -54 -21 l-26 -20 0 20 c0 17 -6 21 -30 21 l-30 0
0 -130z"/>
<path d="M3300 750 l0 -130 30 0 30 0 0 130 0 130 -30 0 -30 0 0 -130z"/>
<path d="M3440 750 l0 -130 30 0 30 0 0 85 c0 72 3 88 20 105 23 23 33 24 61
10 17 -9 19 -22 19 -105 l0 -95 30 0 30 0 0 105 c0 99 -2 107 -25 130 -34 35
-101 30 -127 -9 -5 -6 -8 -1 -8 12 0 18 -6 22 -30 22 l-30 0 0 -130z"/>
<path d="M3990 750 l0 -130 30 0 30 0 0 130 0 130 -30 0 -30 0 0 -130z"/>
<path d="M4130 750 l0 -130 30 0 30 0 0 85 c0 72 3 88 20 105 23 23 33 24 61
10 17 -9 19 -22 19 -105 l0 -95 30 0 30 0 0 105 c0 99 -2 107 -25 130 -34 35
-101 30 -127 -9 -5 -6 -8 -1 -8 12 0 18 -6 22 -30 22 l-30 0 0 -130z"/>
<path d="M8537 850 c-32 -26 -49 -76 -50 -148 -1 -114 39 -172 119 -172 31 0
51 7 73 26 l31 26 0 118 0 118 -31 26 c-39 33 -104 36 -142 6z"/>
<path d="M6675 858 c-41 -22 -45 -38 -45 -164 0 -120 0 -123 26 -143 37 -29
112 -29 143 0 34 32 51 81 51 149 0 72 -17 119 -55 148 -30 24 -87 29 -120 10z"/>
<path d="M8081 854 c-13 -9 -29 -32 -37 -50 -27 -63 -26 -64 96 -64 102 0 110
1 110 19 0 30 -17 68 -40 91 -25 25 -95 27 -129 4z"/>
</g>
</svg>
