<?xml version="1.0" encoding="UTF-8"?>
<svg version="1.1" xmlns="http://www.w3.org/2000/svg" width="916" height="293">
<path d="M0 0 C302.28 0 604.56 0 916 0 C916 96.69 916 193.38 916 293 C613.72 293 311.44 293 0 293 C0 196.31 0 99.62 0 0 Z " fill="#010101" transform="translate(0,0)"/>
<path d="M0 0 C53.0578125 -0.0928125 53.0578125 -0.0928125 107.1875 -0.1875 C118.3252417 -0.21481201 129.4629834 -0.24212402 140.93823242 -0.27026367 C154.61779785 -0.28381348 154.61779785 -0.28381348 161.0370636 -0.28633118 C165.48702044 -0.28910785 169.93686814 -0.30027675 174.38679504 -0.31672668 C180.08742512 -0.33751637 185.78789967 -0.34343471 191.48856413 -0.33921683 C193.5654035 -0.340097 195.64224909 -0.34591885 197.71905553 -0.35764539 C214.54525765 -0.44813286 232.35187547 0.00119796 248.25 6.125 C249.05953125 6.4235791 249.8690625 6.7221582 250.703125 7.02978516 C284.45603627 19.91785967 308.66375018 44.62033517 323.375 77.1875 C326.0414918 83.66221352 327.67936407 90.13913528 329 97 C329.16846436 97.7230835 329.33692871 98.44616699 329.51049805 99.19116211 C331.00408303 105.85541192 331.34835107 112.24447087 331.3125 119.0625 C331.30831055 120.15723633 331.30412109 121.25197266 331.29980469 122.37988281 C330.84376868 155.43764202 316.73717169 185.01298287 293.73046875 208.296875 C282.82242089 218.4156578 270.49998079 225.92060839 257 232 C255.94425781 232.48339844 254.88851562 232.96679688 253.80078125 233.46484375 C236.87498001 240.59491879 219.28328871 241.58582639 201.16699219 241.45410156 C198.92180026 241.4528728 196.67660679 241.45341601 194.43141556 241.45556259 C188.48206514 241.45645635 182.53304419 241.43347111 176.58377075 241.40512085 C170.97722468 241.38214261 165.37075403 241.38125769 159.76416016 241.37841797 C143.42606405 241.35752598 127.08802772 241.30168091 110.75 241.25 C74.2025 241.1675 37.655 241.085 0 241 C0 161.47 0 81.94 0 0 Z " fill="#FDFDFD" transform="translate(30,26)"/>
<path d="M0 0 C113.86363636 0 113.86363636 0 142.875 27.75 C143.57625 28.4925 144.2775 29.235 145 30 C145.763125 30.721875 146.52625 31.44375 147.3125 32.1875 C149 34 149 34 149 36 C149.66 36 150.32 36 151 36 C152.52374844 38.03268042 153.89927203 40.04290104 155.25 42.1875 C155.65114014 42.82171875 156.05228027 43.4559375 156.46557617 44.109375 C169.67791651 65.42284765 174.7478036 90.8648328 169.8125 115.625 C165.89338376 130.80929688 159.22732897 145.05739573 149 157 C148.00033203 158.21623047 148.00033203 158.21623047 146.98046875 159.45703125 C131.19967019 177.96748146 109.58565174 187.37143819 86 191 C57.62 191 29.24 191 0 191 C0 127.97 0 64.94 0 0 Z " fill="#000000" transform="translate(56,51)"/>
<path d="M0 0 C0.85901413 -0.00671722 1.71802826 -0.01343445 2.60307312 -0.02035522 C5.44198394 -0.03934851 8.28065851 -0.04326009 11.11962891 -0.04541016 C13.09494117 -0.05183714 15.07025248 -0.05856543 17.04556274 -0.06558228 C21.18648485 -0.07755835 25.32732351 -0.08126275 29.46826172 -0.08007812 C34.77012033 -0.07987491 40.07144305 -0.10717786 45.37317467 -0.14162254 C49.45330251 -0.16387796 53.5333011 -0.16791608 57.61348343 -0.16685867 C59.56788607 -0.16921664 61.52229216 -0.1780512 63.47663498 -0.19352341 C66.21266786 -0.21315589 68.94754154 -0.20735623 71.68359375 -0.1953125 C72.48795364 -0.20655151 73.29231354 -0.21779053 74.12104797 -0.22937012 C79.37447709 -0.17071271 82.251457 0.90256485 86.47119141 4.29052734 C87.07962891 4.76876953 87.68806641 5.24701172 88.31494141 5.73974609 C90.39325066 8.52720816 89.98911405 11.42196671 89.90087891 14.77490234 C89.2088518 18.8264065 87.45075016 20.52379422 84.47119141 23.29052734 C81.35165013 24.85029798 78.04159757 24.41156861 74.61962891 24.38818359 C73.84559723 24.38676865 73.07156555 24.3853537 72.27407837 24.38389587 C69.79807699 24.37829138 67.32216553 24.36573818 64.84619141 24.35302734 C63.16910938 24.34801292 61.49202593 24.34344991 59.81494141 24.33935547 C55.70032335 24.32832049 51.58577263 24.31105288 47.47119141 24.29052734 C47.47395679 24.87344386 47.47672216 25.45636038 47.47957134 26.05694103 C47.54584605 40.24550421 47.59547919 54.43404417 47.62662792 68.6227293 C47.6420919 75.48430124 47.66317231 82.3457698 47.69750977 89.20727539 C47.73062301 95.82731203 47.74803823 102.4472694 47.75582314 109.06739235 C47.761372 111.59479273 47.77220736 114.12218714 47.78838158 116.64954185 C47.81011542 120.18584337 47.81315995 123.72169923 47.81176758 127.25805664 C47.82255341 128.30606445 47.83333923 129.35407227 47.8444519 130.43383789 C47.80660091 139.30081378 47.80660091 139.30081378 44.47119141 143.29052734 C41.35226494 146.04252128 39.00920928 146.51858815 34.97119141 146.29052734 C30.46135078 145.62908405 28.34058245 143.87726615 25.47119141 140.29052734 C25.14119141 139.96052734 24.81119141 139.63052734 24.47119141 139.29052734 C24.3754717 137.79768936 24.34930914 136.30033079 24.35093689 134.8044281 C24.34956223 133.83542572 24.34818756 132.86642334 24.34677124 131.86805725 C24.35216415 130.26044777 24.35216415 130.26044777 24.35766602 128.62036133 C24.35751999 127.49855469 24.35737396 126.37674805 24.35722351 125.22094727 C24.35792321 121.49281924 24.36571825 117.76474045 24.37353516 114.03662109 C24.37539913 111.45972216 24.37682313 108.88282287 24.37782288 106.30592346 C24.38125798 100.20377619 24.3891488 94.1016494 24.39917237 87.99950987 C24.41033452 81.05403485 24.41584421 74.10855899 24.4208678 67.16307724 C24.43133145 52.87221768 24.44893026 38.58137314 24.47119141 24.29052734 C23.40682861 24.31671143 22.34246582 24.34289551 21.24584961 24.36987305 C17.28577814 24.4605751 13.3257979 24.51784823 9.36499023 24.56518555 C7.65291896 24.59028448 5.94095437 24.62437163 4.22924805 24.66772461 C1.76405495 24.72858474 -0.69971845 24.75678166 -3.16552734 24.77880859 C-4.30800179 24.81751823 -4.30800179 24.81751823 -5.47355652 24.85700989 C-9.53835539 24.85914087 -11.2921583 24.48283376 -14.48901367 21.88500977 C-17.74214833 17.74724053 -17.92514596 14.94249327 -17.88037109 9.77099609 C-17.52880859 7.29052734 -17.52880859 7.29052734 -15.27880859 4.29052734 C-10.10171795 0.52537051 -6.37766939 -0.00715052 0 0 Z " fill="#020202" transform="translate(246.52880859375,83.70947265625)"/>
<path d="M0 0 C3.63 0 7.26 0 11 0 C11 29.37 11 58.74 11 89 C7.37 89 3.74 89 0 89 C-0.33 87.35 -0.66 85.7 -1 84 C-1.721875 84.61875 -2.44375 85.2375 -3.1875 85.875 C-9.65586028 90.76220554 -16.1365377 90.74255455 -24 90 C-30.80889655 88.25921415 -34.49245339 83.84914974 -38 78 C-41.64306463 70.83417181 -42.65282837 64.48077742 -42.5625 56.5 C-42.58634766 55.53191406 -42.61019531 54.56382812 -42.63476562 53.56640625 C-42.61752891 45.00550585 -39.74115998 38.46167963 -34.6875 31.625 C-29.40134555 26.46177938 -24.92220479 24.75771544 -17.5 24.5 C-10.80514938 24.70216738 -5.85095509 26.14904491 -1 31 C-0.67 20.77 -0.34 10.54 0 0 Z " fill="#F4F4F4" transform="translate(875,98)"/>
<path d="M0 0 C6.43273051 3.84063868 11.22029949 10.31445298 13.1171875 17.5546875 C15.01530547 29.84250382 14.75195817 43.76281401 8.2421875 54.64453125 C4.91402106 58.96387295 0.83842015 61.9876943 -4.4375 63.4375 C-14.33382554 64.63893126 -20.26190454 62.88789698 -28.4375 57.4375 C-28.4375 67.0075 -28.4375 76.5775 -28.4375 86.4375 C-32.0675 86.4375 -35.6975 86.4375 -39.4375 86.4375 C-39.4375 58.0575 -39.4375 29.6775 -39.4375 0.4375 C-35.8075 0.4375 -32.1775 0.4375 -28.4375 0.4375 C-28.1075 1.7575 -27.7775 3.0775 -27.4375 4.4375 C-26.715625 3.81875 -25.99375 3.2 -25.25 2.5625 C-18.1923205 -2.76996895 -8.13594116 -3.65960288 0 0 Z " fill="#F8F8F8" transform="translate(618.4375,124.5625)"/>
<path d="M0 0 C1.77697266 -0.02513672 1.77697266 -0.02513672 3.58984375 -0.05078125 C10.14947249 0.63543413 14.29510808 4.11265473 19.0625 8.3125 C19.73345703 7.69761719 19.73345703 7.69761719 20.41796875 7.0703125 C21.32482422 6.26207031 21.32482422 6.26207031 22.25 5.4375 C22.84167969 4.90382813 23.43335938 4.37015625 24.04296875 3.8203125 C30.31699627 -0.8639711 37.56407951 -0.37379611 45.0625 0.3125 C50.44143098 1.83639316 54.09445365 4.51796359 57.0625 9.3125 C59.58478098 15.00261214 59.31832313 20.51576819 59.2578125 26.6171875 C59.2549826 27.69630402 59.25215271 28.77542053 59.24923706 29.88723755 C59.2380766 33.32077299 59.2129793 36.75404391 59.1875 40.1875 C59.17746487 42.52082956 59.16833995 44.85416322 59.16015625 47.1875 C59.13815075 52.89593466 59.10364908 58.60417254 59.0625 64.3125 C55.4325 64.3125 51.8025 64.3125 48.0625 64.3125 C48.032771 62.36815063 48.032771 62.36815063 48.00244141 60.38452148 C47.92612165 55.55555454 47.83744531 50.72687857 47.74511719 45.89819336 C47.70693617 43.81198896 47.67206467 41.72572118 47.640625 39.6394043 C47.59473773 36.633071 47.53678267 33.62717001 47.4765625 30.62109375 C47.46501129 29.69477646 47.45346008 28.76845917 47.44155884 27.81407166 C47.3247122 22.6368418 46.92040169 18.17165814 45.0625 13.3125 C40.47522854 9.92665678 36.54645383 9.79021868 31.0625 10.3125 C26.8946829 12.1122392 24.45345803 14.4741079 22.0625 18.3125 C21.45078491 21.82504511 21.45758519 25.3042863 21.453125 28.86328125 C21.43658875 29.87722458 21.42005249 30.89116791 21.40301514 31.93583679 C21.35453658 35.1656195 21.33316398 38.39493133 21.3125 41.625 C21.28434028 43.81838306 21.25441286 46.01174419 21.22265625 48.20507812 C21.14877725 53.57417999 21.09920141 58.94302048 21.0625 64.3125 C17.4325 64.3125 13.8025 64.3125 10.0625 64.3125 C10.04791748 62.94520752 10.03333496 61.57791504 10.01831055 60.16918945 C9.96028537 55.09047452 9.88305215 50.01220097 9.80004883 44.93383789 C9.76681945 42.73697073 9.73878134 40.5400186 9.71606445 38.34301758 C9.68248246 35.18273757 9.63016366 32.02323479 9.57421875 28.86328125 C9.56782883 27.88289383 9.5614389 26.90250641 9.55485535 25.89241028 C9.41591995 19.10761262 9.41591995 19.10761262 6.0625 13.3125 C1.63389673 10.32576756 -2.67934488 9.38041855 -7.9375 10.3125 C-11.90008888 11.89443372 -14.5332619 13.70614284 -16.9375 17.3125 C-17.26403695 19.51200087 -17.26403695 19.51200087 -17.25634766 21.9675293 C-17.27621735 22.90827805 -17.29608704 23.84902679 -17.31655884 24.81828308 C-17.32811005 25.83086685 -17.33966125 26.84345062 -17.3515625 27.88671875 C-17.37092865 28.92568802 -17.3902948 29.96465729 -17.4102478 31.03511047 C-17.47007299 34.35665656 -17.51644104 37.67823724 -17.5625 41 C-17.60067705 43.25066624 -17.63972861 45.50131782 -17.6796875 47.75195312 C-17.77577708 53.27201655 -17.85979751 58.79214837 -17.9375 64.3125 C-21.5675 64.3125 -25.1975 64.3125 -28.9375 64.3125 C-28.9375 43.8525 -28.9375 23.3925 -28.9375 2.3125 C-25.3075 2.3125 -21.6775 2.3125 -17.9375 2.3125 C-17.6075 3.6325 -17.2775 4.9525 -16.9375 6.3125 C-16.215625 5.69375 -15.49375 5.075 -14.75 4.4375 C-9.90401499 0.77608911 -6.04517151 0.01969111 0 0 Z " fill="#F7F7F7" transform="translate(503.9375,122.6875)"/>
<path d="M0 0 C5.6074971 3.42947784 10.03556275 8.45898719 12.5 14.5625 C13.5625 19.5 13.5625 19.5 13.5625 34.5 C-0.2975 34.5 -14.1575 34.5 -28.4375 34.5 C-26.24207408 43.9061477 -26.24207408 43.9061477 -22.4375 48.5 C-22.4375 49.16 -22.4375 49.82 -22.4375 50.5 C-21.65375 50.809375 -20.87 51.11875 -20.0625 51.4375 C-17.4375 52.5 -17.4375 52.5 -15.4375 53.5 C-8.57795403 54.27775521 -3.16235429 53.45319037 2.5625 49.5 C3.58774599 48.52590007 4.59555631 47.53199801 5.5625 46.5 C8.47767292 47.57401108 10.34060176 48.27810176 12.5625 50.5 C12.24427412 53.85152788 11.01081835 55.4177235 8.5 57.5625 C0.298238 64.081003 -8.21050506 64.6243208 -18.4375 63.5 C-26.89427346 61.07736994 -32.14312769 55.68106031 -36.75390625 48.4296875 C-41.17309927 39.59130146 -40.75731461 27.83354822 -38.77734375 18.33203125 C-36.0227208 10.64055157 -30.90410263 4.62050844 -23.875 0.5 C-16.57058673 -2.78977392 -7.43175421 -3.21802173 0 0 Z " fill="#F7F7F7" transform="translate(809.4375,124.5)"/>
<path d="M0 0 C0.63164062 0.350625 1.26328125 0.70125 1.9140625 1.0625 C7.0340779 4.19987114 9.80902327 8.46297094 12 14 C12.61014393 16.72982915 12.84687354 19.19268148 13 22 C9.04 22 5.08 22 1 22 C0.7525 20.783125 0.505 19.56625 0.25 18.3125 C-0.76179 14.36303007 -1.97865565 11.85802844 -5 9 C-10.76676256 5.58701808 -16.38284286 5.12782456 -23 6 C-27.54687707 7.50091088 -30.32243672 8.98365508 -33 13 C-33.78546091 17.87812568 -33.86070027 21.76274337 -31 25.875 C-24.82091306 30.25185325 -18.25925713 32.68888623 -11.0625 34.875 C-0.97661053 38.11075664 6.3824884 41.69599641 12 51 C13.73986509 56.21959528 14.11082322 62.08097575 12.12890625 67.2890625 C8.15682758 74.03508463 2.45481727 79.3508913 -5.15625 81.52734375 C-15.4468304 83.23772868 -26.75651349 83.3179674 -36 78 C-41.49363115 73.98864433 -47.06244042 69.50171735 -48.51171875 62.54296875 C-48.67447917 60.36197917 -48.83723958 58.18098958 -49 56 C-45.04 56 -41.08 56 -37 56 C-36.5875 57.4025 -36.175 58.805 -35.75 60.25 C-33.91923352 65.65754174 -31.92140311 67.90205537 -26.9375 70.75 C-20.7926459 73.14992156 -13.77371881 72.84041659 -7.5625 70.8125 C-3.72380052 68.85947746 -1.98909511 67.8124323 0 64 C0.78896987 59.4798601 0.84068972 56.30579352 -1.6875 52.37890625 C-4.21770229 49.77604613 -6.13160395 48.73686783 -9.5 47.4375 C-11.09134766 46.81488281 -11.09134766 46.81488281 -12.71484375 46.1796875 C-15.81225567 45.0674183 -18.92428797 44.05265295 -22.0625 43.0625 C-31.75821008 39.89421678 -39.66462461 36.05077065 -45.09765625 27.21484375 C-47.21554912 22.01637944 -46.88757943 15.15708632 -45.3828125 9.8046875 C-42.22203279 3.56704258 -35.12728734 -1.36246134 -28.59375 -3.52734375 C-18.92080282 -5.29003443 -8.46514987 -5.42912565 0 0 Z " fill="#F5F5F5" transform="translate(422,106)"/>
<path d="M0 0 C1.16789063 -0.00257812 2.33578125 -0.00515625 3.5390625 -0.0078125 C6.375 0.125 6.375 0.125 7.375 1.125 C7.51615161 3.79558851 7.41747107 6.44932238 7.375 9.125 C6.37919922 9.16367188 6.37919922 9.16367188 5.36328125 9.203125 C-0.14266256 9.55679146 -3.66686392 9.9115003 -7.625 14.125 C-8.97591528 16.82683055 -8.96358058 19.24308206 -9.1875 22.25 C-9.331875 24.18875 -9.47625 26.1275 -9.625 28.125 C-5.335 28.125 -1.045 28.125 3.375 28.125 C3.375 30.765 3.375 33.405 3.375 36.125 C-0.915 36.125 -5.205 36.125 -9.625 36.125 C-9.625 53.945 -9.625 71.765 -9.625 90.125 C-13.255 90.125 -16.885 90.125 -20.625 90.125 C-20.625 72.305 -20.625 54.485 -20.625 36.125 C-23.925 36.125 -27.225 36.125 -30.625 36.125 C-30.625 33.485 -30.625 30.845 -30.625 28.125 C-27.325 28.125 -24.025 28.125 -20.625 28.125 C-20.67140625 27.2071875 -20.7178125 26.289375 -20.765625 25.34375 C-21.17000413 11.59485962 -21.17000413 11.59485962 -16.625 6.125 C-11.38630661 1.3863637 -7.08671673 -0.01571334 0 0 Z " fill="#F8F8F8" transform="translate(728.625,96.875)"/>
<path d="M0 0 C5.38945235 3.59296823 8.17504912 7.68179691 9.8125 13.875 C10.10638403 16.67250947 10.14644861 19.43867774 10.125 22.25 C10.12008545 23.00442383 10.1151709 23.75884766 10.11010742 24.53613281 C9.96279797 31.5072695 9.03821144 36.24980189 4.375 41.75 C-0.29593638 45.62345944 -3.72615326 46.31879065 -9.71484375 46.1953125 C-14.1584017 45.61968572 -16.80942037 43.31435054 -19.81835938 40.17163086 C-22.54510935 35.59771199 -21.70506751 29.80868142 -21.68847656 24.60327148 C-21.6875043 22.44704578 -21.72913699 20.29438385 -21.7734375 18.13867188 C-21.77864535 16.76042405 -21.78133268 15.38216392 -21.78125 14.00390625 C-21.78833984 12.75681885 -21.79542969 11.50973145 -21.80273438 10.22485352 C-20.86726992 5.13139803 -17.7927113 3.13313859 -13.875 0.0625 C-9.01318336 -2.08574456 -4.8616395 -1.71587276 0 0 Z " fill="#050505" transform="translate(611.1875,133.125)"/>
<path d="M0 0 C3.62271062 1.94552978 5.75266589 3.65142787 8.375 6.8125 C9.25405037 11.07014729 9.13611783 15.28127561 9.08178711 19.62255859 C9.06260183 21.67659732 9.10190672 23.72381635 9.14648438 25.77734375 C9.11926741 36.82743303 9.11926741 36.82743303 5.515625 41.16796875 C1.72066455 44.81555784 -1.95296743 45.66321138 -7.125 46.125 C-11.10322106 45.76980169 -13.30428236 45.02631176 -16.625 42.8125 C-23.76492373 33.88759533 -23.42974328 23.93927371 -22.34765625 13.01171875 C-21.22974878 6.67690976 -18.31998792 3.86920131 -13.25 0 C-8.53368855 -2.13356946 -4.83157872 -1.58275855 0 0 Z " fill="#050505" transform="translate(866.625,133.1875)"/>
<path d="M0 0 C3.63 0 7.26 0 11 0 C11 29.37 11 58.74 11 89 C7.37 89 3.74 89 0 89 C0 59.63 0 30.26 0 0 Z " fill="#F6F6F6" transform="translate(646,98)"/>
<path d="M0 0 C3.63 0 7.26 0 11 0 C11 20.46 11 40.92 11 62 C7.37 62 3.74 62 0 62 C0 41.54 0 21.08 0 0 Z " fill="#F8F8F8" transform="translate(745,125)"/>
<path d="M0 0 C3.63 0 7.26 0 11 0 C11 20.46 11 40.92 11 62 C7.37 62 3.74 62 0 62 C0 41.54 0 21.08 0 0 Z " fill="#F8F8F8" transform="translate(675,125)"/>
<path d="M0 0 C3.63 0 7.26 0 11 0 C11 20.46 11 40.92 11 62 C7.37 62 3.74 62 0 62 C0 41.54 0 21.08 0 0 Z " fill="#F6F6F6" transform="translate(448,125)"/>
<path d="M0 0 C3.17647075 2.09358299 4.8449721 3.49634033 6.75 6.8125 C7.08 10.1125 7.41 13.4125 7.75 16.8125 C-2.15 16.8125 -12.05 16.8125 -22.25 16.8125 C-21.1212651 6.65388589 -21.1212651 6.65388589 -18.4375 3.875 C-17.93605469 3.32972656 -17.43460938 2.78445312 -16.91796875 2.22265625 C-11.78261537 -2.11894228 -6.12481848 -2.23791444 0 0 Z " fill="#040404" transform="translate(804.25,133.1875)"/>
<path d="M0 0 C0.99 0.66 1.98 1.32 3 2 C3.37033222 5.39471203 3.60921702 7.88907484 1.9375 10.9375 C-1.11976176 12.6140629 -3.5906288 12.36528977 -7 12 C-8.9375 10.875 -8.9375 10.875 -10 9 C-10.38976435 5.88188517 -10.50422245 3.88980433 -8.9375 1.125 C-5.92517484 -0.62409203 -3.40497373 -0.30401551 0 0 Z " fill="#F0F0F0" transform="translate(684,103)"/>
<path d="M0 0 C2.54685809 0.0785782 3.81954973 0.17584047 6.0625 1.4375 C7.55936954 4.24413039 7.51785315 6.19007843 7.0625 9.3125 C4.81077097 11.91064888 3.41232295 12.26966454 0 12.6875 C-2.9375 12.3125 -2.9375 12.3125 -4.8125 11.25 C-6.55723477 8.24517901 -6.24585443 5.70439869 -5.9375 2.3125 C-3.9375 0.3125 -3.9375 0.3125 0 0 Z " fill="#F0F0F0" transform="translate(452.9375,102.6875)"/>
<path d="M0 0 C1.9375 1.125 1.9375 1.125 3 3 C3.38976435 6.11811483 3.50422245 8.11019567 1.9375 10.875 C-1.1069286 12.64273274 -3.5631012 12.36823916 -7 12 C-8.9375 10.875 -8.9375 10.875 -10 9 C-10.38976435 5.88188517 -10.50422245 3.88980433 -8.9375 1.125 C-5.8930714 -0.64273274 -3.4368988 -0.36823916 0 0 Z " fill="#F4F4F4" transform="translate(754,103)"/>
</svg>
