<?xml version="1.0" standalone="no"?>
<!DOCTYPE svg PUBLIC "-//W3C//DTD SVG 20010904//EN"
 "http://www.w3.org/TR/2001/REC-SVG-20010904/DTD/svg10.dtd">
<svg version="1.0" xmlns="http://www.w3.org/2000/svg"
 width="492.000000pt" height="180.000000pt" viewBox="0 0 492.000000 180.000000"
 preserveAspectRatio="xMidYMid meet">

<g transform="translate(0.000000,180.000000) scale(0.100000,-0.100000)"
fill="#000000" stroke="none">
<path d="M0 900 l0 -900 2460 0 2460 0 0 900 0 900 -2460 0 -2460 0 0 -900z
m1732 711 c268 -69 473 -273 545 -541 25 -96 23 -262 -5 -363 -75 -267 -278
-463 -545 -527 -78 -19 -119 -20 -769 -20 l-688 0 0 735 0 735 693 0 c653 0
698 -1 769 -19z m1176 -564 c4 -20 -25 -34 -39 -20 -14 14 1 45 20 41 9 -2 17
-11 19 -21z m812 -128 c0 -142 1 -151 20 -156 29 -8 25 -33 -4 -33 -47 0 -56
31 -56 186 0 77 3 144 7 147 3 4 12 7 20 7 10 0 13 -32 13 -151z m138 128 c4
-20 -25 -34 -40 -19 -15 15 -1 44 19 40 10 -2 19 -11 21 -21z m207 4 c0 -10
-12 -15 -40 -15 -38 -1 -40 -3 -43 -33 -3 -32 -2 -33 37 -33 30 0 41 -4 41
-15 0 -11 -11 -15 -40 -15 l-40 0 0 -105 c0 -87 -3 -105 -15 -105 -12 0 -15
18 -15 105 0 98 -1 105 -20 105 -11 0 -20 7 -20 15 0 8 7 15 15 15 9 0 15 9
15 24 0 13 10 35 21 50 18 23 28 27 63 24 28 -2 41 -8 41 -17z m83 -4 c4 -20
-25 -34 -40 -19 -15 15 -1 44 19 40 10 -2 19 -11 21 -21z m532 -147 c0 -144
-2 -170 -15 -170 -8 0 -15 7 -15 15 0 19 -9 19 -34 0 -33 -25 -84 -19 -117 14
-25 25 -29 37 -29 85 0 71 14 101 57 121 38 18 77 14 106 -12 16 -15 17 -12
17 50 0 53 3 67 15 67 13 0 15 -26 15 -170z m-1911 133 c14 -12 18 -22 12 -32
-7 -11 -13 -11 -32 3 -33 23 -92 21 -114 -4 -31 -34 -8 -65 62 -85 73 -21 103
-48 103 -91 0 -46 -9 -63 -41 -79 -58 -31 -179 -4 -179 39 0 19 23 33 28 18 6
-19 57 -42 91 -42 37 0 61 23 61 59 0 36 -11 45 -81 65 -67 19 -89 41 -89 89
0 51 36 77 105 77 36 0 60 -6 74 -17z m375 -74 c26 -21 28 -21 47 -3 29 26 87
24 110 -5 16 -19 19 -40 19 -122 0 -92 -1 -99 -20 -99 -19 0 -20 7 -20 100 0
88 -2 100 -19 110 -28 14 -69 -4 -81 -35 -6 -15 -10 -60 -10 -101 0 -59 -3
-74 -15 -74 -12 0 -15 16 -15 84 0 46 -3 92 -6 100 -10 26 -39 37 -68 26 -31
-11 -46 -60 -46 -147 0 -49 -3 -63 -15 -63 -12 0 -15 20 -15 120 0 100 3 120
15 120 8 0 15 -7 15 -15 0 -12 6 -11 33 5 41 25 58 25 91 -1z m433 -5 c12 -8
27 -32 33 -54 24 -89 -23 -170 -98 -170 -23 0 -45 6 -52 15 -23 28 -30 16 -30
-50 0 -51 -3 -65 -15 -65 -13 0 -15 26 -15 170 0 144 2 170 15 170 8 0 15 -7
15 -15 0 -17 16 -20 25 -4 19 30 78 32 122 3z m788 12 c26 -11 36 -24 46 -54
19 -65 12 -72 -81 -72 -73 0 -80 -2 -80 -20 0 -54 83 -79 127 -39 21 21 23 21
29 4 18 -45 -83 -73 -145 -40 -73 37 -65 187 11 220 42 18 51 18 93 1z m-1457
-113 c-3 -103 -5 -118 -20 -121 -16 -3 -18 8 -18 117 0 115 1 121 20 121 20 0
21 -5 18 -117z m942 -3 c0 -100 -2 -120 -15 -120 -12 0 -15 20 -15 120 0 100
3 120 15 120 13 0 15 -20 15 -120z m290 0 c0 -100 -2 -120 -15 -120 -12 0 -15
20 -15 120 0 100 3 120 15 120 13 0 15 -20 15 -120z"/>
<path d="M402 898 l3 -583 285 0 c275 0 288 1 359 24 96 32 209 107 267 179
171 210 187 480 40 700 -74 111 -170 185 -306 235 -50 19 -82 21 -353 25
l-297 4 2 -584z m498 384 c0 -54 -7 -67 -27 -51 -24 21 -14 99 13 99 10 0 14
-14 14 -48z m-180 -37 c21 -33 22 -65 2 -65 -10 0 -52 72 -52 89 0 23 29 9 50
-24z m375 25 c5 -8 -19 -59 -41 -89 -2 -2 -10 -1 -19 3 -14 5 -14 9 1 38 29
57 45 70 59 48z m-83 -123 c102 -53 156 -151 145 -268 -6 -68 -26 -109 -83
-171 -42 -45 -44 -50 -44 -108 0 -111 -32 -140 -156 -140 -70 0 -78 2 -105 29
-26 27 -29 36 -29 94 0 63 -2 67 -44 117 -69 81 -81 112 -81 211 0 78 3 90 30
134 57 91 133 134 242 135 50 0 73 -6 125 -33z m-426 -28 c34 -20 46 -49 22
-49 -23 0 -78 39 -78 55 0 21 16 19 56 -6z m654 1 c0 -15 -77 -63 -89 -55 -19
11 -12 25 22 45 34 21 67 26 67 10z m-662 -192 c3 -15 -4 -18 -47 -18 -51 0
-75 15 -50 31 24 16 93 6 97 -13z m707 -8 c0 -11 -13 -16 -44 -18 -45 -3 -68
8 -56 28 11 17 100 9 100 -10z"/>
<path d="M835 1141 c-112 -29 -187 -121 -187 -230 0 -71 22 -125 72 -176 21
-22 43 -52 49 -67 l11 -28 104 0 c96 0 105 2 111 20 4 11 28 45 54 75 93 107
97 241 8 333 -58 61 -150 91 -222 73z"/>
<path d="M780 595 c0 -12 17 -15 106 -15 80 0 105 3 102 13 -3 8 -36 13 -106
15 -86 2 -102 0 -102 -13z"/>
<path d="M780 541 c0 -5 7 -17 16 -25 24 -24 155 -22 177 2 10 10 17 22 17 25
0 4 -47 7 -105 7 -58 0 -105 -4 -105 -9z"/>
<path d="M1487 1230 c-35 -28 -37 -77 -4 -108 19 -18 36 -22 127 -24 l105 -3
5 -318 c5 -342 3 -329 58 -343 16 -4 33 0 50 13 l27 20 3 317 2 316 106 0 c98
0 107 2 129 25 30 29 32 64 6 96 l-19 24 -284 3 c-277 3 -285 2 -311 -18z"/>
<path d="M4533 932 c-35 -22 -39 -118 -6 -154 25 -28 78 -23 102 8 32 41 25
121 -13 146 -14 10 -68 10 -83 0z"/>
<path d="M3458 923 c-36 -41 -28 -131 12 -153 61 -32 115 14 107 92 -2 26 -10
54 -17 63 -17 21 -83 20 -102 -2z"/>
<path d="M4275 925 c-43 -42 -34 -55 40 -55 58 0 65 2 65 20 0 26 -34 60 -60
60 -12 0 -32 -11 -45 -25z"/>
</g>
</svg>
